<svg id="pc_コンポーネント_5" data-name="pc_コンポーネント 5" xmlns="http://www.w3.org/2000/svg" xmlns:xlink="http://www.w3.org/1999/xlink" width="599.531" height="35" viewBox="0 0 599.531 35">
  <defs>
    <clipPath id="clip-path">
      <rect width="387" height="35" fill="none"/>
    </clipPath>
  </defs>
  <g id="Path_7" data-name="Path 7" transform="translate(127)" fill="#3c2b1c">
    <path d="M 34.5 34.5 L 0.5 34.5 L 0.5 0.5 L 34.5 0.5 L 34.5 34.5 Z" stroke="none"/>
    <path d="M 1 1 L 1 34 L 34 34 L 34 1 L 1 1 M 0 0 L 35 0 L 35 35 L 0 35 L 0 0 Z" stroke="none" fill="#707070"/>
  </g>
  <text id="_" data-name="１" transform="translate(137 24)" fill="#fff" font-size="16" font-family="PingFangSC-Semibold, PingFang SC" font-weight="600"><tspan x="0" y="0">１</tspan></text>
  <g id="Repeat_Grid_8" data-name="Repeat Grid 8" transform="translate(177)" clip-path="url(#clip-path)">
    <g transform="translate(-494 -2242)">
      <g id="Rectangle_37" data-name="Rectangle 37" transform="translate(494 2242)" fill="#fff" stroke="#707070" stroke-width="1">
        <rect width="35" height="35" stroke="none"/>
        <rect x="0.5" y="0.5" width="34" height="34" fill="none"/>
      </g>
      <text id="_2" data-name="2" transform="translate(507 2266)" fill="#707070" font-size="16" font-family="Roboto-Bold, Roboto" font-weight="700"><tspan x="0" y="0">2</tspan></text>
    </g>
    <g transform="translate(-444 -2242)">
      <g id="Rectangle_37-2" data-name="Rectangle 37" transform="translate(494 2242)" fill="#fff" stroke="#707070" stroke-width="1">
        <rect width="35" height="35" stroke="none"/>
        <rect x="0.5" y="0.5" width="34" height="34" fill="none"/>
      </g>
      <text id="_3" data-name="3" transform="translate(507 2266)" fill="#707070" font-size="16" font-family="Roboto-Bold, Roboto" font-weight="700"><tspan x="0" y="0">3</tspan></text>
    </g>
    <g transform="translate(-394 -2242)">
      <g id="Rectangle_37-3" data-name="Rectangle 37" transform="translate(494 2242)" fill="#fff" stroke="#707070" stroke-width="1">
        <rect width="35" height="35" stroke="none"/>
        <rect x="0.5" y="0.5" width="34" height="34" fill="none"/>
      </g>
      <text id="_4" data-name="4" transform="translate(507 2266)" fill="#707070" font-size="16" font-family="Roboto-Bold, Roboto" font-weight="700"><tspan x="0" y="0">4</tspan></text>
    </g>
    <g transform="translate(-344 -2242)">
      <g id="Rectangle_37-4" data-name="Rectangle 37" transform="translate(494 2242)" fill="#fff" stroke="#707070" stroke-width="1">
        <rect width="35" height="35" stroke="none"/>
        <rect x="0.5" y="0.5" width="34" height="34" fill="none"/>
      </g>
      <text id="_5" data-name="5" transform="translate(507 2266)" fill="#707070" font-size="16" font-family="Roboto-Bold, Roboto" font-weight="700"><tspan x="0" y="0">5</tspan></text>
    </g>
    <g transform="translate(-294 -2242)">
      <g id="Rectangle_37-5" data-name="Rectangle 37" transform="translate(494 2242)" fill="#fff" stroke="#707070" stroke-width="1">
        <rect width="35" height="35" stroke="none"/>
        <rect x="0.5" y="0.5" width="34" height="34" fill="none"/>
      </g>
      <text id="_6" data-name="6" transform="translate(507 2266)" fill="#707070" font-size="16" font-family="Roboto-Bold, Roboto" font-weight="700"><tspan x="0" y="0">6</tspan></text>
    </g>
    <g transform="translate(-244 -2242)">
      <g id="Rectangle_37-6" data-name="Rectangle 37" transform="translate(494 2242)" fill="#fff" stroke="#707070" stroke-width="1">
        <rect width="35" height="35" stroke="none"/>
        <rect x="0.5" y="0.5" width="34" height="34" fill="none"/>
      </g>
      <text id="_7" data-name="7" transform="translate(507 2266)" fill="#707070" font-size="16" font-family="Roboto-Bold, Roboto" font-weight="700"><tspan x="0" y="0">7</tspan></text>
    </g>
    <g transform="translate(-194 -2242)">
      <g id="Rectangle_37-7" data-name="Rectangle 37" transform="translate(494 2242)" fill="#fff" stroke="#707070" stroke-width="1">
        <rect width="35" height="35" stroke="none"/>
        <rect x="0.5" y="0.5" width="34" height="34" fill="none"/>
      </g>
      <text id="_8" data-name="8" transform="translate(507 2266)" fill="#707070" font-size="16" font-family="Roboto-Bold, Roboto" font-weight="700"><tspan x="0" y="0">8</tspan></text>
    </g>
    <g transform="translate(-144 -2242)">
      <g id="Rectangle_37-8" data-name="Rectangle 37" transform="translate(494 2242)" fill="#fff" stroke="#707070" stroke-width="1">
        <rect width="35" height="35" stroke="none"/>
        <rect x="0.5" y="0.5" width="34" height="34" fill="none"/>
      </g>
      <text id="_9" data-name="9" transform="translate(507 2266)" fill="#707070" font-size="16" font-family="Roboto-Bold, Roboto" font-weight="700"><tspan x="0" y="0">9</tspan></text>
    </g>
  </g>
  <text id="page_1_10" data-name="page 1/10" transform="translate(0 24)" fill="#707070" font-size="16" font-family="Roboto-Bold, Roboto" font-weight="700"><tspan x="0" y="0">page 1/10</tspan></text>
  <g id="Group_7" data-name="Group 7" transform="translate(-322 -2242)">
    <path id="Path_4" data-name="Path 4" d="M410.823,5451l-8.533,8.533,8.533,8.533" transform="translate(12 -3200)" fill="none" stroke="#707070" stroke-width="1"/>
    <path id="Path_5" data-name="Path 5" d="M410.823,5451l-8.533,8.533,8.533,8.533" transform="translate(21 -3200)" fill="none" stroke="#707070" stroke-width="1"/>
  </g>
  <g id="Group_8" data-name="Group 8" transform="translate(1013.114 2277.065) rotate(180)">
    <path id="Path_4-2" data-name="Path 4" d="M410.823,5451l-8.533,8.533,8.533,8.533" transform="translate(12 -3200)" fill="none" stroke="#707070" stroke-width="1"/>
    <path id="Path_5-2" data-name="Path 5" d="M410.823,5451l-8.533,8.533,8.533,8.533" transform="translate(21 -3200)" fill="none" stroke="#707070" stroke-width="1"/>
  </g>
</svg>
